<svg id="Calque_1" data-name="Calque 1" xmlns="http://www.w3.org/2000/svg" viewBox="0 0 24.5 24.51"><defs><style>.cls-1{fill:#9fa2aa;}</style></defs><title>search</title><g id="Groupe_257" data-name="Groupe 257"><g id="Groupe_256" data-name="Groupe 256"><path id="Tracé_1094" data-name="Tracé 1094" class="cls-1" d="M28,26.5l-4.43-4.43a9.72,9.72,0,0,0,1.72-2.83,11.27,11.27,0,0,0,0-8.49h0A14.44,14.44,0,0,0,22.93,7h0a9.29,9.29,0,0,0-3.69-2.46h0A11.16,11.16,0,0,0,4.58,19.11h0a11,11,0,0,0,6,6.16h0a11.08,11.08,0,0,0,11.45-1.72L26.5,28A1,1,0,0,0,28,26.5m-6.65-5.17h0a9.55,9.55,0,0,1-3,2,8.69,8.69,0,0,1-3.45.74,9.27,9.27,0,0,1-3.57-.74h0a9.55,9.55,0,0,1-3-2h0a9.55,9.55,0,0,1-2-3h0a9.85,9.85,0,0,1,0-7,9.55,9.55,0,0,1,2-3,9.22,9.22,0,0,1,6.53-2.71,8.26,8.26,0,0,1,3.45.74h0a9.55,9.55,0,0,1,3,2h0a9.55,9.55,0,0,1,2,3h0a9.85,9.85,0,0,1,0,7,9.55,9.55,0,0,1-2,3M12,8.16h0a3.85,3.85,0,0,0-1.23.62c-.37.25-.74.62-1.11.86h0a6.76,6.76,0,0,0-.86,1.11h0A3.85,3.85,0,0,0,8.15,12c-.12.37,0,.62.37.86h0c.37.12.62,0,.86-.37h0a7.31,7.31,0,0,1,.49-1h0a5.35,5.35,0,0,1,.74-.86h0c.25-.25.62-.49.86-.74a3.69,3.69,0,0,1,1-.49A.66.66,0,1,0,12,8.16m9.48,6h0a.58.58,0,0,0-.62.62,5.33,5.33,0,0,1-.49,2.34h0a7,7,0,0,1-3.2,3.32A7.2,7.2,0,0,1,14.8,21a.62.62,0,0,0,0,1.23,11.4,11.4,0,0,0,2.83-.49A6.12,6.12,0,0,0,20,20.1a7.89,7.89,0,0,0,1.6-2.34h0a5.53,5.53,0,0,0,.49-2.83.58.58,0,0,0-.62-.62" transform="translate(-3.75 -3.74)"/></g></g></svg>